<?xml version="1.0" encoding="utf-8"?>
<!-- Generator: Adobe Illustrator 26.2.1, SVG Export Plug-In . SVG Version: 6.00 Build 0)  -->
<svg version="1.1" id="Calque_1" xmlns="http://www.w3.org/2000/svg" xmlns:xlink="http://www.w3.org/1999/xlink" x="0px" y="0px"
	 viewBox="0 0 336.4 365.5" style="enable-background:new 0 0 336.4 365.5;" xml:space="preserve">
<style type="text/css">
	.st0{
		stroke: currentColor;
		stroke-width: 32px;
	}
</style>
<path stroke="currentColor" fill="none" stroke-width="17" class="st0" d="M320.4,237V128.5c0-20.8-11.1-40-29.1-50.4l-94-54.3c-18-10.4-40.2-10.4-58.2,0l-94,54.3
	C27.1,88.5,16,107.7,16,128.5V237c0,20.8,11.1,40,29.1,50.4l94,54.3c18,10.4,40.2,10.4,58.2,0l94-54.3
	C309.3,277,320.4,257.8,320.4,237z"/>
<line stroke="currentColor" fill="none" stroke-width="17" class="st0" x1="168.2" y1="7" x2="168.2" y2="358.5"/>
<line stroke="currentColor" fill="none" stroke-width="17" class="st0" x1="320.4" y1="270.6" x2="16" y2="94.9"/>
<line stroke="currentColor" fill="none" stroke-width="17" class="st0" x1="16" y1="270.6" x2="320.4" y2="94.9"/>
</svg>
