<?xml version="1.0" encoding="UTF-8" standalone="no"?>
<!DOCTYPE svg PUBLIC "-//W3C//DTD SVG 1.1//EN" "http://www.w3.org/Graphics/SVG/1.1/DTD/svg11.dtd">
<svg version="1.1" xmlns="http://www.w3.org/2000/svg" xmlns:xl="http://www.w3.org/1999/xlink" xmlns:dc="http://purl.org/dc/elements/1.1/" viewBox="-3972 -533 4908 1682" preserveAspectRatio="xMidYMid meet">
  <defs>
    <marker orient="auto" overflow="visible" markerUnits="strokeWidth" id="FilledArrow_Marker" stroke-linejoin="miter" stroke-miterlimit="10" viewBox="-1 -2 4 4" markerWidth="4" markerHeight="4" color="currentColor">
      <g>
        <path d="M 1.8 0 L 0 -.675 L 0 .675 Z" fill="currentColor" stroke="currentColor" stroke-width="1"/>
      </g>
    </marker>
  </defs>
  <g id="Canevas_1" stroke="none" stroke-dasharray="none" stroke-opacity="1" fill-opacity="1" fill="none">
    <title>Canevas 1</title>
    <g id="Canevas_1_Calque_1">
      <title>Calque 1</title>
      <g id="Group_5">
        <title>Link Icon</title>
        <g id="Graphic_2">
          <path d="M -1492.1538 -447.07267 L -1492.1538 -397.08876 C -1492.1538 -390.28487 -1497.6695 -384.76923 -1504.4734 -384.76923 L -1561.9645 -384.76923 C -1568.7684 -384.76923 -1574.284 -390.28487 -1574.284 -397.08876 L -1574.284 -479.21893 C -1574.284 -486.0228 -1568.7684 -491.53846 -1561.9645 -491.53846 L -1536.6196 -491.53846 C -1534.4422 -491.53813 -1532.354 -490.6731 -1530.814 -489.1336 L -1494.5587 -452.87825 C -1493.0192 -451.33837 -1492.1542 -449.25014 -1492.1538 -447.07267 Z" stroke="currentColor" stroke-linecap="butt" stroke-linejoin="round" stroke-width="12"/>
        </g>
        <g id="Graphic_3">
          <path d="M -1533.219 -489.4852 L -1533.219 -458.6864 C -1533.219 -454.15047 -1529.5418 -450.47337 -1525.006 -450.47337 L -1494.2071 -450.47337" stroke="currentColor" stroke-linecap="round" stroke-linejoin="round" stroke-width="12"/>
        </g>
      </g>
      <g id="Graphic_4">
        <title>Client Icon</title>
        <path d="M 699.7776 -95.36471 C 699.5755 -99.10346 696.7057 -102.15104 692.98585 -102.57733 L 674.38106 -105.58864 C 672.6624 -105.87057 671.3338 -107.24932 671.1158 -108.97727 C 670.7602 -111.26296 670.3902 -113.63572 669.8822 -115.88513 C 669.5467 -117.56242 670.31336 -119.26767 671.7906 -120.12998 L 688.32014 -129.30903 C 691.7178 -131.04097 693.278 -135.0444 691.9482 -138.61868 L 689.082 -146.5279 C 687.7804 -150.11519 683.9893 -152.14982 680.2803 -151.25165 L 661.7408 -147.62357 C 660.0405 -147.31964 658.3372 -148.14201 657.51774 -149.66256 C 656.4366 -151.68702 655.2611 -153.74777 654.0348 -155.77224 C 653.12166 -157.25092 653.25 -159.14662 654.35406 -160.48875 L 666.6895 -174.73984 C 669.2817 -177.5231 669.4029 -181.7987 666.9725 -184.72432 L 661.58845 -191.18956 C 659.1622 -194.12902 654.9053 -194.75597 651.7346 -192.6408 L 635.50255 -182.89577 C 634.02496 -182.01048 632.1421 -182.19611 630.8659 -183.3529 C 629.0736 -184.9275 627.2378 -186.44403 625.5181 -187.84447 C 624.16356 -188.91337 623.65844 -190.7371 624.27 -192.35054 L 630.9892 -210.05558 C 632.5039 -213.55245 631.15946 -217.62942 627.8618 -219.53938 L 620.54035 -223.81325 C 617.23936 -225.71676 613.03484 -224.8321 610.7808 -221.75976 L 598.917 -206.8556 C 598.03675 -205.5194 596.3321 -204.99582 594.85355 -205.60755 C 594.4109 -205.78895 590.66674 -207.32 587.757 -208.29233 C 586.11876 -208.82624 585.0188 -210.3644 585.0432 -212.0873 L 585.3262 -231.0041 C 585.5353 -234.82557 582.8718 -238.20702 579.1077 -238.8988 L 570.7994 -240.35004 C 567.0553 -240.99686 563.4105 -238.77278 562.2734 -235.14738 L 556.10565 -217.14484 C 555.53064 -215.50437 553.9534 -214.43033 552.21635 -214.49635 L 545.1416 -214.49635 C 543.4193 -214.46096 541.86865 -215.5347 541.2958 -217.15936 L 535.1571 -235.0603 C 534.03976 -238.7132 530.38167 -240.9665 526.6166 -240.32102 L 518.2938 -238.8698 C 514.55486 -238.18367 511.90017 -234.83738 512.0825 -231.0404 L 512.3728 -212.05828 C 512.3847 -210.30866 511.24544 -208.7592 509.5719 -208.2488 C 507.91024 -207.603 504.3039 -206.22432 502.66403 -205.6148 C 501.2128 -205.09236 499.63096 -205.6656 498.3539 -207.1386 L 486.55536 -221.65092 C 484.3136 -224.74246 480.1018 -225.64678 476.78857 -223.74795 L 469.48887 -219.5176 C 466.1532 -217.60306 464.8006 -213.47956 466.3542 -209.96125 L 473.06616 -192.29975 C 473.66654 -190.68426 473.17033 -188.8658 471.8326 -187.77916 C 470.06936 -186.32793 468.2626 -184.8767 466.46305 -183.26583 C 465.1947 -182.1184 463.3272 -181.93017 461.8554 -182.80144 L 445.812 -192.73512 C 442.62464 -194.80847 438.39254 -194.18656 435.9364 -191.2839 L 430.5741 -184.83316 C 428.1078 -181.925 428.22344 -177.62725 430.84256 -174.85594 L 443.2361 -160.61936 C 444.3654 -159.30211 444.4981 -157.40043 443.5626 -155.93913 C 442.3218 -153.96546 441.13905 -151.8902 440.06514 -149.81493 C 439.241 -148.28346 437.52407 -147.45723 435.81303 -147.7687 L 417.30257 -151.34598 C 413.59215 -152.2413 409.8009 -150.20827 408.4936 -146.62222 L 405.5911 -138.72752 C 404.2633 -135.14915 405.822 -131.1432 409.2192 -129.40336 L 425.74874 -120.22431 C 427.2759 -119.38144 428.0603 -117.62914 427.6716 -115.92867 L 427.49747 -115.00714 C 427.12015 -112.98267 426.77185 -111.06704 426.43807 -109.02806 C 426.2014 -107.3238 424.8954 -105.9651 423.2018 -105.6612 L 404.56075 -102.6499 C 400.7896 -102.1869 397.94774 -98.9972 397.92136 -95.19782 L 397.92136 -86.79519 C 397.89936 -82.97608 400.77084 -79.75976 404.568 -79.350365 L 423.2018 -76.346315 C 424.9217 -76.06663 426.25135 -74.68673 426.4671 -72.95769 C 426.82265 -70.66474 427.1927 -68.29923 427.70064 -66.04982 C 428.03616 -64.37254 427.26953 -62.66728 425.79227 -61.80497 L 409.27 -52.611415 C 405.87234 -50.87947 404.31216 -46.87604 405.6419 -43.30176 L 408.5444 -35.392547 C 409.84873 -31.807567 413.6376 -29.77413 417.3461 -30.668787 L 435.8856 -34.260587 C 437.5866 -34.569275 439.29254 -33.745614 440.1087 -32.221606 C 441.1971 -30.18988 442.36534 -28.136387 443.59163 -26.11192 C 444.5093 -24.63437 444.3808 -22.735813 443.27236 -21.395415 L 430.9369 -7.151573 C 428.31364 -4.3890133 428.1581 -.10537832 430.5741 2.8401597 L 435.9509 9.305398 C 438.3754 12.248006 442.6349 12.875325 445.80476 10.75663 L 462.0368 1.0116074 C 463.5144 .12632171 465.3972 .31195234 466.6735 1.4687454 C 468.473 3.043332 470.30156 4.5598696 472.02127 5.9603085 C 473.37436 7.030016 473.8817 8.851156 473.2766 10.466384 L 466.5501 28.171414 C 465.03545 31.66829 466.3799 35.745263 469.67753 37.655215 L 477.0135 41.892813 C 480.31273 43.797846 484.51687 42.916385 486.77304 39.846576 L 498.782 25.08029 C 499.79785 23.824974 501.3942 23.26625 502.57696 23.745157 C 505.1021 24.790044 506.7928 25.377793 509.7896 26.379143 C 511.4278 26.91446 512.52935 28.450742 512.51064 30.174114 L 512.2204 49.07641 C 512.0178 52.89581 514.6783 56.273454 518.4389 56.971113 L 526.7472 58.422345 C 530.4926 59.07587 534.14147 56.84928 535.2732 53.21968 L 541.44095 35.24617 C 542.014 33.60418 543.5925 32.52927 545.33025 32.59767 L 552.405 32.59767 C 554.128 32.560004 555.67985 33.63458 556.2508 35.260683 L 562.39674 53.16163 C 563.3741 56.35161 566.3166 58.531994 569.6529 58.538444 C 570.0861 58.53941 570.5184 58.500545 570.9445 58.422345 L 579.2673 56.971113 C 583.00625 56.28499 585.66095 52.93871 585.4786 49.141717 L 585.18834 30.159602 C 585.17684 28.443492 586.27744 26.917324 587.9094 26.3864 C 590.6958 25.450354 592.6549 24.695714 594.37464 24.028147 L 594.81 23.861255 C 597.0594 23.084846 598.14784 24.028147 598.7791 24.811812 L 610.9332 39.78127 C 613.1887 42.847045 617.3879 43.728126 620.6855 41.827507 L 627.9924 37.597166 C 631.30145 35.68576 632.64756 31.594328 631.1198 28.091597 L 624.41514 10.430103 C 623.8084 8.816361 624.3024 6.99543 625.6414 5.9095154 C 627.4047 4.4582834 629.2115 3.0070514 631.011 1.3961838 C 632.2876 .24523248 634.1661 .06268678 635.6404 .9463019 L 651.887 10.669556 C 655.0736 12.746273 659.3081 12.124008 661.7626 9.218324 L 667.13216 2.760342 C 669.59844 -.14781321 669.4828 -4.4455665 666.8637 -7.216878 L 654.4847 -21.489745 C 653.3553 -22.806987 653.22266 -24.70867 654.15814 -26.169968 C 655.39894 -28.136387 656.5817 -30.21165 657.6556 -32.294167 C 658.4831 -33.822184 660.1973 -34.64713 661.9077 -34.340404 L 680.3964 -30.734093 C 684.1068 -29.838777 687.8981 -31.87181 689.2054 -35.457853 L 692.0716 -43.352555 C 693.3986 -46.928863 691.8396 -50.932395 688.4435 -52.669464 L 671.89945 -61.86302 C 670.3944 -62.71383 669.6249 -64.45047 670.0056 -66.1369 L 670.17974 -67.05843 C 670.5571 -69.0829 670.90536 -70.998525 671.23914 -73.03751 C 671.4758 -74.74177 672.7818 -76.10046 674.4754 -76.40436 L 693.1165 -79.40841 C 696.8974 -79.86473 699.7503 -83.05949 699.7776 -86.86775 Z M 494.8274 -27.156806 C 492.99306 -23.96723 489.73933 -21.851855 486.0798 -21.469667 C 482.4203 -21.08748 478.7997 -22.484925 476.34594 -25.226667 C 442.4735 -62.679405 442.60544 -119.73911 476.6507 -157.03481 C 479.11733 -159.77557 482.751 -161.16363 486.4167 -160.76544 C 490.0824 -160.36724 493.3333 -158.23132 495.1539 -155.02486 L 528.2783 -96.72161 C 530.30216 -93.18353 530.30216 -88.8385 528.2783 -85.30042 Z M 548.8495 7.077757 C 541.94444 7.0795275 535.0586 6.34984 528.3073 4.900909 C 524.7402 4.103973 521.76634 1.654961 520.30013 -1.6931032 C 518.8339 -5.041167 519.05086 -8.88752 520.88425 -12.04948 L 554.2626 -70.09876 C 556.3061 -73.65922 560.0983 -75.85428 564.2035 -75.8529 L 631.0618 -75.8529 C 634.7144 -75.85859 638.1511 -74.123485 640.3153 -71.18106 C 642.47946 -68.23864 643.11206 -64.441085 642.0186 -60.956 C 629.32756 -21.540538 592.38645 7.077757 548.8495 7.077757 Z M 554.29887 -111.8507 L 521.2761 -170.00157 C 519.4611 -173.16847 519.26145 -177.01009 520.73846 -180.34804 C 522.2155 -183.686 525.1928 -186.12185 528.7572 -186.90842 C 535.3639 -188.30073 542.09766 -189.0011 548.8495 -188.9982 C 592.38645 -188.9982 629.32756 -160.3799 641.9968 -120.94267 C 643.0903 -117.45759 642.4577 -113.66003 640.2935 -110.71761 C 638.1293 -107.77519 634.6926 -106.04008 631.04 -106.04578 L 564.28334 -106.04578 C 560.1516 -106.03761 556.3359 -108.25603 554.29887 -111.8507 Z" fill="currentColor"/>
      </g>
      <g id="Graphic_10">
        <rect x="-3956" y="-248" width="3305" height="1131" stroke="currentColor" stroke-linecap="butt" stroke-linejoin="round" stroke-width="32"/>
      </g>
      <g id="Graphic_12">
        <text transform="translate(-3957 224.33333)" fill="currentColor" fill-opacity=".25154124">
          <tspan font-family="Avenir Next" font-style="italic" font-weight="bold" font-size="650" fill="currentColor" fill-opacity=".25154124" x="0" y="650">420</tspan>
          <tspan font-family="Avenir Next" font-style="italic" font-weight="bold" font-size="650" fill="currentColor" fill-opacity=".25154124" y="650">7</tspan>
        </text>
      </g>
      <g id="Line_16">
        <line x1="-3849" y1="140" x2="-2809" y2="140" stroke="currentColor" stroke-opacity=".25" stroke-linecap="round" stroke-linejoin="round" stroke-width="32"/>
      </g>
      <g id="Line_17">
        <line x1="-3848" y1="256" x2="-1942.3333" y2="256" stroke="currentColor" stroke-opacity=".25" stroke-linecap="round" stroke-linejoin="round" stroke-width="32"/>
      </g>
      <g id="Graphic_18">
        <circle cx="-804.7778" cy="-86.5" r="30.0000479370569" fill="currentColor" fill-opacity=".25"/>
        <circle cx="-804.7778" cy="-86.5" r="30.0000479370569" stroke="currentColor" stroke-opacity=".25" stroke-linecap="round" stroke-linejoin="round" stroke-width="1"/>
      </g>
      <g id="Line_19">
        <line x1="-1158" y1="-86" x2="-879.4444" y2="-86" stroke="currentColor" stroke-opacity=".25" stroke-linecap="round" stroke-linejoin="round" stroke-width="32"/>
      </g>
      <g id="Group_26">
        <g id="Graphic_23">
          <path d="M 271.91992 -320.3996 L 815.7789 -320.3996 C 833.5294 -320.3996 847.9189 -306.01005 847.9189 -288.25962 L 847.9189 91.86966 C 847.9189 109.62009 833.5294 124.00966 815.7789 124.00966 L 271.91992 124.00966 C 254.1695 124.00966 239.77992 109.62009 239.77992 91.86966 L 239.77992 -288.25962 C 239.77992 -306.01005 254.1695 -320.3996 271.91992 -320.3996 Z" stroke="currentColor" stroke-linecap="butt" stroke-linejoin="round" stroke-width="32"/>
        </g>
        <g id="Line_24">
          <line x1="193" y1="147.39962" x2="894.6989" y2="147.39962" stroke="currentColor" stroke-linecap="round" stroke-linejoin="round" stroke-width="32"/>
        </g>
      </g>
      <g id="Group_36">
        <g id="Group_25">
          <g id="Graphic_21">
            <path d="M 429.18276 266 L 658.5161 266 C 685.0258 266 706.5161 287.49033 706.5161 314 L 706.5161 828 C 706.5161 854.5097 685.0258 876 658.5161 876 L 429.18276 876 C 402.6731 876 381.18276 854.5097 381.18276 828 L 381.18276 314 C 381.18276 287.49033 402.6731 266 429.18276 266 Z" stroke="currentColor" stroke-linecap="round" stroke-linejoin="round" stroke-width="32"/>
          </g>
          <g id="Graphic_22">
            <path d="M 442.18276 266 L 472.68276 266 C 478.29766 266 482.8494 270.55177 482.8494 276.16667 C 482.8494 287.39646 491.953 296.5 503.18276 296.5 L 584.5161 296.5 C 595.7459 296.5 604.8494 287.39646 604.8494 276.16667 C 604.8494 270.55177 609.4012 266 615.0161 266 L 645.5161 266" stroke="currentColor" stroke-linecap="round" stroke-linejoin="round" stroke-width="32"/>
          </g>
        </g>
        <g id="Graphic_28">
          <title>Client Icon</title>
          <path d="M 665.9435 567.438 C 665.78 564.41355 663.4585 561.9482 660.4493 561.60335 L 645.39886 559.16733 C 644.0085 558.9393 642.9338 557.8239 642.7574 556.4261 C 642.4698 554.5771 642.1704 552.6576 641.7595 550.83794 C 641.4881 549.4811 642.1083 548.1016 643.3033 547.40404 L 656.67495 539.9786 C 659.4235 538.57754 660.6856 535.33895 659.6099 532.4475 L 657.2913 526.0493 C 656.2383 523.14736 653.1715 521.50144 650.1711 522.228 L 635.1735 525.16297 C 633.798 525.40884 632.4201 524.7436 631.7572 523.5135 C 630.8826 521.8758 629.93166 520.20877 628.93964 518.57106 C 628.20096 517.3749 628.3048 515.84135 629.1979 514.7556 L 639.17676 503.2271 C 641.2737 500.9756 641.37174 497.5168 639.4057 495.15014 L 635.0502 489.92005 C 633.0875 487.54215 629.6438 487.035 627.0789 488.74607 L 613.9479 496.62935 C 612.7526 497.3455 611.2295 497.19534 610.197 496.25955 C 608.74716 494.9858 607.2621 493.75897 605.8709 492.6261 C 604.7752 491.7614 604.36655 490.2861 604.8613 488.98086 L 610.2968 474.6583 C 611.5221 471.8295 610.4345 468.5314 607.7669 466.9863 L 601.84415 463.52895 C 599.1738 461.9891 595.77254 462.70475 593.9491 465.19013 L 584.3518 477.2469 C 583.63975 478.32786 582.26076 478.7514 581.0647 478.25654 C 580.7066 478.1098 577.67775 476.87125 575.3239 476.0847 C 573.99864 475.65277 573.1088 474.40846 573.1286 473.0147 L 573.3575 457.71187 C 573.52667 454.6205 571.372 451.88504 568.327 451.3254 L 561.60595 450.15143 C 558.57714 449.6282 555.6287 451.42737 554.7088 454.36016 L 549.7194 468.9234 C 549.2542 470.25047 547.97833 471.1193 546.5731 471.0659 L 540.84996 471.0659 C 539.4567 471.09453 538.2023 470.2259 537.7389 468.91165 L 532.77297 454.4306 C 531.8691 451.47556 528.90984 449.65275 525.8641 450.1749 L 519.1313 451.3489 C 516.1067 451.90393 513.95914 454.6109 514.10666 457.6825 L 514.34146 473.0382 C 514.3511 474.45355 513.4295 475.707 512.0757 476.1199 C 510.73147 476.6423 507.8141 477.7576 506.4875 478.2507 C 505.31354 478.6733 504.0339 478.2096 503.0008 477.018 L 493.45633 465.2782 C 491.64285 462.77726 488.2357 462.0457 485.55544 463.5818 L 479.6503 467.00393 C 476.9519 468.5527 475.85773 471.88844 477.1145 474.7346 L 482.5442 489.02195 C 483.02986 490.3288 482.62845 491.79986 481.5463 492.6789 C 480.1199 493.8529 478.6583 495.02687 477.20256 496.33 C 476.17654 497.2582 474.6658 497.4105 473.47517 496.70566 L 460.4968 488.66976 C 457.91836 486.9925 454.4948 487.4956 452.50787 489.84374 L 448.17 495.0621 C 446.1749 497.41465 446.26844 500.89134 448.3872 503.1332 L 458.413 514.64996 C 459.32657 515.71555 459.4339 517.2539 458.67714 518.43605 C 457.6734 520.03267 456.7166 521.71146 455.84784 523.39026 C 455.18113 524.62915 453.79223 525.2975 452.4081 525.0456 L 437.43395 522.1517 C 434.4324 521.42743 431.36544 523.07207 430.3079 525.973 L 427.9599 532.3595 C 426.88575 535.2542 428.1467 538.49485 430.89487 539.9023 L 444.2665 547.32773 C 445.5019 548.0096 446.13646 549.4271 445.82204 550.8027 L 445.68116 551.5482 C 445.37593 553.1859 445.0942 554.73556 444.82416 556.385 C 444.6327 557.7637 443.5762 558.8628 442.2062 559.10864 L 427.1264 561.54465 C 424.0757 561.9192 421.77677 564.4995 421.75543 567.57304 L 421.75543 574.3704 C 421.7376 577.4599 424.06053 580.0617 427.13226 580.3929 L 442.2062 582.82306 C 443.59746 583.0493 444.6731 584.1656 444.84764 585.5643 C 445.13526 587.4192 445.43463 589.3328 445.8455 591.15245 C 446.11694 592.5093 445.49677 593.8888 444.30174 594.58635 L 430.93596 602.0235 C 428.1874 603.4246 426.9253 606.6632 428.001 609.5546 L 430.34897 615.9528 C 431.4041 618.8529 434.46915 620.49785 437.46917 619.7741 L 452.4668 616.8685 C 453.8428 616.6188 455.22284 617.2851 455.88306 618.51796 C 456.76355 620.1615 457.7086 621.8227 458.7006 623.4604 C 459.443 624.6557 459.339 626.1915 458.44234 627.27586 L 448.4635 638.7985 C 446.3414 641.0333 446.2156 644.4985 448.17 646.88135 L 452.5196 652.1114 C 454.4809 654.4919 457.92664 654.99934 460.49094 653.2854 L 473.6219 645.4021 C 474.8172 644.686 476.34035 644.83614 477.3728 645.7719 C 478.8285 647.0457 480.30774 648.2725 481.6989 649.4054 C 482.7935 650.27075 483.2039 651.744 482.7144 653.0506 L 477.273 667.3732 C 476.0477 670.202 477.1353 673.5001 479.80293 675.04516 L 485.7374 678.4732 C 488.40633 680.0143 491.8073 679.3012 493.63243 676.8179 L 503.3471 664.8726 C 504.1689 663.8571 505.4603 663.4051 506.4171 663.79255 C 508.4598 664.6378 509.8275 665.1133 512.2518 665.9233 C 513.577 666.3564 514.4681 667.59915 514.453 668.9933 L 514.2182 684.2844 C 514.0543 687.3741 516.20655 690.1065 519.2487 690.67085 L 525.96974 691.8448 C 528.9996 692.3735 531.95135 690.5723 532.8669 687.6361 L 537.8563 673.09635 C 538.31987 671.76805 539.5968 670.8985 541.0026 670.9538 L 546.72573 670.9538 C 548.11956 670.9234 549.37493 671.79264 549.8368 673.1081 L 554.8086 687.58915 C 555.5992 690.1697 557.97956 691.9335 560.6785 691.93875 C 561.0289 691.9395 561.3787 691.9081 561.72334 691.8448 L 568.4561 690.67085 C 571.48076 690.1158 573.6283 687.4088 573.4808 684.3372 L 573.246 668.98154 C 573.2367 667.5933 574.127 666.3587 575.4472 665.9292 C 577.7012 665.172 579.2861 664.5615 580.6773 664.0215 L 581.0295 663.8865 C 582.84914 663.2584 583.7296 664.0215 584.2403 664.6554 L 594.0724 676.765 C 595.897 679.2451 599.294 679.9579 601.96155 678.42035 L 607.87255 674.9982 C 610.5494 673.45196 611.63834 670.1422 610.4025 667.3086 L 604.9787 653.0213 C 604.4879 651.7158 604.88746 650.2428 605.9707 649.3643 C 607.3971 648.1903 608.8587 647.01635 610.3144 645.7132 C 611.3472 644.7822 612.86675 644.6345 614.0594 645.3493 L 627.20215 653.215 C 629.78 654.89494 633.2055 654.39156 635.1911 652.041 L 639.5348 646.8168 C 641.5299 644.4642 641.4364 640.9875 639.3176 638.74566 L 629.3036 627.19955 C 628.39 626.13396 628.2827 624.5956 629.0394 623.41346 C 630.0432 621.8227 631 620.1439 631.8687 618.45926 C 632.5381 617.22316 633.92486 616.5558 635.3085 616.80395 L 650.265 619.7213 C 653.2666 620.44556 656.3335 618.8009 657.3911 615.9 L 659.7097 609.5135 C 660.7832 606.62045 659.52204 603.3818 656.7747 601.97656 L 643.39135 594.5394 C 642.17385 593.8511 641.5513 592.44626 641.8593 591.082 L 642.0002 590.33654 C 642.3054 588.6988 642.5872 587.1492 642.8572 585.4997 C 643.0487 584.12106 644.10514 583.02194 645.4752 582.7761 L 660.55496 580.34596 C 663.61355 579.9768 665.9214 577.3924 665.9435 574.3117 Z M 500.148 622.61515 C 498.66414 625.1954 496.032 626.9066 493.07164 627.2158 C 490.11126 627.525 487.18236 626.3945 485.1974 624.17655 C 457.7961 593.879 457.9028 547.72024 485.4439 517.5497 C 487.4393 515.33255 490.3788 514.20967 493.3442 514.5318 C 496.3096 514.8539 498.9394 516.5818 500.4122 519.17566 L 527.2083 566.34036 C 528.8455 569.2025 528.8455 572.71744 527.2083 575.5796 Z M 543.8495 650.3094 C 538.2636 650.3108 532.6933 649.7205 527.2318 648.5484 C 524.34615 647.9037 521.94043 645.9226 520.75434 643.21414 C 519.56824 640.5057 519.74373 637.3942 521.22686 634.8363 L 548.2284 587.87705 C 549.8815 584.9968 552.9493 583.2211 556.2702 583.2222 L 610.3555 583.2222 C 613.3103 583.2176 616.09046 584.6212 617.8412 587.0015 C 619.5919 589.3818 620.10365 592.45385 619.2191 595.2731 C 608.9526 627.15846 579.0689 650.3094 543.8495 650.3094 Z M 548.2578 554.1016 L 521.54383 507.0602 C 520.0756 504.4983 519.9141 501.3906 521.1089 498.69035 C 522.30376 495.9901 524.7123 494.0196 527.5957 493.3833 C 532.94024 492.257 538.38755 491.6904 543.8495 491.69276 C 579.0689 491.69276 608.9526 514.8437 619.2015 546.7466 C 620.08604 549.5659 619.5743 552.63794 617.8236 555.0182 C 616.07285 557.3985 613.2927 558.80214 610.3379 558.7975 L 556.3348 558.7975 C 552.9924 558.80413 549.9057 557.00953 548.2578 554.1016 Z" fill="currentColor"/>
        </g>
      </g>
      <g id="Line_34">
        <path d="M -635 317.5 L -271.5088 317.5 C -216.28031 317.5 -171.50879 272.72847 -171.50879 217.5 L -171.50879 1.805019 C -171.50879 -53.423456 -126.73726 -98.19498 -71.50879 -98.19498 L 120.87992 -98.19498" marker-end="url(#FilledArrow_Marker)" stroke="currentColor" stroke-linecap="round" stroke-linejoin="round" stroke-width="32"/>
      </g>
      <g id="Line_35">
        <path d="M -651 317.5 L -268.13965 317.5 C -212.91117 317.5 -168.13965 362.27153 -168.13965 417.5 L -168.13965 471 C -168.13965 526.2285 -123.36812 571 -68.13965 571 L 262.28276 571" marker-end="url(#FilledArrow_Marker)" stroke="currentColor" stroke-linecap="round" stroke-linejoin="round" stroke-width="32"/>
      </g>
      <g id="Graphic_37">
        <text transform="translate(-3957 -527.75384)" fill="currentColor">
          <tspan font-family="Helvetica Neue" font-size="150" fill="currentColor" x="0" y="143">People choose wallpapers on your</tspan>
        </text>
      </g>
      <g id="Group_38">
        <title>Link Icon</title>
        <g id="Graphic_40">
          <path d="M -3717.846 -76.89572 L -3717.846 5.966662 C -3717.846 17.246016 -3726.99 26.38974 -3738.2692 26.38974 L -3833.577 26.38974 C -3844.8563 26.38974 -3854 17.246016 -3854 5.966662 L -3854 -130.18718 C -3854 -141.46654 -3844.8563 -150.61026 -3833.577 -150.61026 L -3791.5607 -150.61026 C -3787.951 -150.60972 -3784.489 -149.17571 -3781.9363 -146.6235 L -3721.833 -86.52009 C -3719.2807 -83.96731 -3717.8467 -80.50549 -3717.846 -76.89572 Z" stroke="currentColor" stroke-linecap="butt" stroke-linejoin="round" stroke-width="21"/>
        </g>
        <g id="Graphic_39">
          <path d="M -3785.923 -147.20641 L -3785.923 -96.14872 C -3785.923 -88.62915 -3779.8273 -82.53334 -3772.3077 -82.53334 L -3721.25 -82.53334" stroke="currentColor" stroke-linecap="round" stroke-linejoin="round" stroke-width="21"/>
        </g>
      </g>
      <g id="Graphic_42">
        <title>Client Icon</title>
        <path d="M -814.9928 1065.9519 C -815.0805 1064.3298 -816.3256 1063.0075 -817.9395 1062.8226 L -826.0114 1061.5161 C -826.757 1061.3938 -827.3334 1060.7956 -827.428 1060.0459 C -827.5823 1059.0542 -827.7429 1058.0248 -827.9632 1057.0489 C -828.1088 1056.3211 -827.7762 1055.5813 -827.1353 1055.2072 L -819.9637 1051.2247 C -818.4896 1050.4733 -817.8127 1048.7364 -818.3897 1047.1857 L -819.6332 1043.7542 C -820.1979 1042.1978 -821.8427 1041.315 -823.4519 1041.7047 L -831.4955 1043.2788 C -832.2332 1043.4106 -832.9722 1043.0538 -833.3277 1042.3941 C -833.7968 1041.5158 -834.3068 1040.6217 -834.8388 1039.7434 C -835.235 1039.1018 -835.1793 1038.2794 -834.7003 1037.6971 L -829.3484 1031.5141 C -828.2238 1030.3065 -828.1712 1028.4515 -829.2256 1027.1822 L -831.5616 1024.3772 C -832.6142 1023.1019 -834.4612 1022.8299 -835.8368 1023.7476 L -842.8792 1027.9755 C -843.5203 1028.3596 -844.3372 1028.2791 -844.8909 1027.7772 C -845.6685 1027.094 -846.465 1026.4361 -847.2111 1025.8285 C -847.7988 1025.3647 -848.0179 1024.5735 -847.7526 1023.8735 L -844.8374 1016.192 C -844.1802 1014.6748 -844.7635 1012.906 -846.1943 1012.0773 L -849.3708 1010.223 C -850.8029 1009.3972 -852.6271 1009.781 -853.605 1011.114 L -858.7523 1017.5803 C -859.1342 1018.16 -859.8738 1018.3872 -860.5153 1018.1218 C -860.7073 1018.0431 -862.3318 1017.3788 -863.5942 1016.957 C -864.3049 1016.7253 -864.7822 1016.058 -864.7716 1015.3105 L -864.6488 1007.1032 C -864.5581 1005.4452 -865.7137 1003.9781 -867.3468 1003.678 L -870.9514 1003.0484 C -872.5758 1002.7677 -874.1572 1003.7327 -874.6505 1005.3056 L -877.3265 1013.1162 C -877.5759 1013.828 -878.2602 1014.2939 -879.0139 1014.2653 L -882.0833 1014.2653 C -882.8306 1014.2806 -883.5033 1013.8148 -883.7519 1013.1099 L -886.4152 1005.3434 C -886.9 1003.7585 -888.4871 1002.7809 -890.1206 1003.061 L -893.7316 1003.6906 C -895.3537 1003.9883 -896.5055 1005.4401 -896.4264 1007.0875 L -896.3005 1015.3231 C -896.2953 1016.0822 -896.7896 1016.7544 -897.5156 1016.9759 C -898.2366 1017.256 -899.8012 1017.8542 -900.5127 1018.1186 C -901.1423 1018.3453 -901.8286 1018.0966 -902.3827 1017.4575 L -907.5016 1011.1612 C -908.4742 1009.8199 -910.3016 1009.4275 -911.7391 1010.2514 L -914.9061 1012.0868 C -916.3533 1012.9174 -916.9402 1014.7064 -916.2661 1016.2329 L -913.3541 1023.8955 C -913.0936 1024.5964 -913.3089 1025.3854 -913.8893 1025.8568 C -914.6543 1026.4865 -915.4382 1027.1161 -916.2189 1027.815 C -916.7692 1028.3128 -917.5794 1028.3945 -918.218 1028.0165 L -925.1786 1023.7066 C -926.5615 1022.8071 -928.3976 1023.0769 -929.4632 1024.3363 L -931.7897 1027.135 C -932.8597 1028.3967 -932.8096 1030.2613 -931.6732 1031.4637 L -926.2962 1037.6404 C -925.8062 1038.2119 -925.7486 1039.037 -926.1545 1039.671 C -926.6928 1040.5273 -927.206 1041.4277 -927.6719 1042.328 C -928.0295 1042.9925 -928.7744 1043.351 -929.5167 1043.2158 L -937.5477 1041.6638 C -939.1575 1041.2753 -940.8024 1042.1574 -941.3696 1043.7132 L -942.6289 1047.1384 C -943.205 1048.691 -942.5287 1050.429 -941.0548 1051.1838 L -933.8833 1055.1662 C -933.2207 1055.532 -932.8804 1056.2922 -933.049 1057.03 L -933.1245 1057.4298 C -933.2883 1058.3081 -933.4394 1059.1392 -933.5842 1060.0239 C -933.6869 1060.7633 -934.2535 1061.3528 -934.9883 1061.4846 L -943.0759 1062.7911 C -944.712 1062.992 -945.945 1064.3759 -945.9565 1066.0243 L -945.9565 1069.6698 C -945.966 1071.3268 -944.7202 1072.7222 -943.0727 1072.8999 L -934.9883 1074.2032 C -934.2421 1074.3245 -933.6652 1074.9232 -933.5716 1075.6734 C -933.4173 1076.6682 -933.2568 1077.6945 -933.0364 1078.6705 C -932.8908 1079.3982 -933.2234 1080.138 -933.8644 1080.5121 L -941.0327 1084.5009 C -942.5068 1085.2523 -943.1838 1086.9892 -942.6068 1088.54 L -941.3476 1091.9715 C -940.7816 1093.5268 -939.1378 1094.409 -937.5288 1094.0209 L -929.4853 1092.4626 C -928.7473 1092.3286 -928.0071 1092.686 -927.653 1093.3472 C -927.1808 1094.2287 -926.674 1095.1196 -926.1419 1095.998 C -925.7438 1096.639 -925.7995 1097.4627 -926.2804 1098.0443 L -931.6323 1104.2241 C -932.7704 1105.4227 -932.8379 1107.2812 -931.7897 1108.5591 L -929.4569 1111.3641 C -928.405 1112.6408 -926.557 1112.913 -925.1817 1111.9938 L -918.1393 1107.7658 C -917.4982 1107.3817 -916.6813 1107.4622 -916.1276 1107.9641 C -915.3469 1108.6473 -914.5535 1109.3052 -913.8074 1109.9128 C -913.2204 1110.377 -913.0002 1111.1671 -913.2628 1111.8679 L -916.1811 1119.5494 C -916.8383 1121.0665 -916.255 1122.8354 -914.8243 1123.664 L -911.6415 1125.5026 C -910.2101 1126.3291 -908.386 1125.9466 -907.4072 1124.6148 L -902.197 1118.2083 C -901.7562 1117.6636 -901.0636 1117.4212 -900.5505 1117.629 C -899.4549 1118.0823 -898.7214 1118.3373 -897.4212 1118.7718 C -896.7104 1119.004 -896.2325 1119.6706 -896.2406 1120.4183 L -896.3666 1128.6192 C -896.4545 1130.2763 -895.3002 1131.7418 -893.6686 1132.0444 L -890.0639 1132.6741 C -888.439 1132.9576 -886.8559 1131.9916 -886.3648 1130.4168 L -883.6889 1122.6188 C -883.4403 1121.9064 -882.7554 1121.4401 -882.0015 1121.4698 L -878.932 1121.4698 C -878.1845 1121.4534 -877.5112 1121.9196 -877.2635 1122.6251 L -874.597 1130.3917 C -874.173 1131.7757 -872.8963 1132.7217 -871.4488 1132.7244 C -871.2609 1132.7249 -871.0733 1132.708 -870.8885 1132.6741 L -867.2775 1132.0444 C -865.6553 1131.7468 -864.5036 1130.295 -864.5827 1128.6476 L -864.7086 1120.412 C -864.7136 1119.6674 -864.2361 1119.0053 -863.5281 1118.7749 C -862.3192 1118.3688 -861.4692 1118.0414 -860.723 1117.7518 L -860.5342 1117.6794 C -859.5582 1117.3425 -859.086 1117.7518 -858.8121 1118.0918 L -853.5389 1124.5864 C -852.5603 1125.9166 -850.7385 1126.2988 -849.3078 1125.4742 L -846.1376 1123.6388 C -844.7019 1122.8096 -844.1179 1121.0344 -844.7807 1119.5147 L -847.6896 1111.8521 C -847.9529 1111.152 -847.7386 1110.362 -847.1576 1109.8908 C -846.3926 1109.2612 -845.6087 1108.6315 -844.828 1107.9326 C -844.2741 1107.4333 -843.4591 1107.3541 -842.8194 1107.7375 L -835.7707 1111.956 C -834.3881 1112.857 -832.5509 1112.587 -831.486 1111.3264 L -829.1564 1108.5245 C -828.0864 1107.2628 -828.1365 1105.3981 -829.2729 1104.1958 L -834.6436 1098.0033 C -835.1336 1097.4318 -835.1912 1096.6068 -834.7853 1095.9728 C -834.247 1095.1196 -833.7338 1094.2192 -833.2679 1093.3157 C -832.9089 1092.6528 -832.1651 1092.2949 -831.4231 1092.4279 L -823.4015 1093.9926 C -821.7917 1094.381 -820.1469 1093.499 -819.5797 1091.9431 L -818.3361 1088.5179 C -817.7604 1086.9663 -818.4368 1085.2293 -819.9102 1084.4757 L -827.088 1080.487 C -827.741 1080.1178 -828.0749 1079.3643 -827.9097 1078.6327 L -827.8342 1078.2329 C -827.6705 1077.3545 -827.5193 1076.5234 -827.3745 1075.6388 C -827.2718 1074.8994 -826.7052 1074.3099 -825.9704 1074.178 L -817.8828 1072.8747 C -816.2424 1072.6767 -815.00465 1071.2906 -814.9928 1069.6384 Z M -903.9127 1095.5446 C -904.7086 1096.9285 -906.1202 1097.8462 -907.708 1098.012 C -909.2957 1098.1779 -910.8665 1097.5716 -911.9311 1096.382 C -926.627 1080.1327 -926.5698 1055.3768 -911.7989 1039.1956 C -910.7287 1038.0065 -909.1522 1037.4043 -907.5618 1037.577 C -905.9714 1037.7498 -904.5609 1038.6765 -903.771 1040.0676 L -889.3997 1065.3632 C -888.5216 1066.8982 -888.5216 1068.7833 -889.3997 1070.3184 Z M -880.4746 1110.3977 C -883.4705 1110.3984 -886.458 1110.0818 -889.3871 1109.4532 C -890.9347 1109.1075 -892.225 1108.0449 -892.8611 1106.5923 C -893.4972 1105.1397 -893.4031 1103.471 -892.6077 1102.0991 L -878.1261 1076.9138 C -877.2395 1075.369 -875.5942 1074.4167 -873.8131 1074.4173 L -844.8059 1074.4173 C -843.2212 1074.4148 -841.7301 1075.1676 -840.7912 1076.4442 C -839.8522 1077.7208 -839.5778 1079.3684 -840.0522 1080.8805 C -845.5583 1097.9813 -861.5856 1110.3977 -880.4746 1110.3977 Z M -878.1104 1058.7992 L -892.4377 1033.5698 C -893.2251 1032.1958 -893.3117 1030.5291 -892.6709 1029.0809 C -892.0301 1027.6327 -890.7383 1026.5759 -889.1919 1026.2346 C -886.3255 1025.6305 -883.404 1025.3267 -880.4746 1025.328 C -861.5856 1025.328 -845.5583 1037.7443 -840.0616 1054.8546 C -839.5872 1056.3666 -839.8617 1058.0142 -840.8006 1059.2908 C -841.7396 1060.5674 -843.2306 1061.3202 -844.8154 1061.3178 L -873.7785 1061.3178 C -875.5711 1061.3213 -877.2266 1060.3588 -878.1104 1058.7992 Z" fill="currentColor"/>
      </g>
      <g id="Graphic_44">
        <text transform="translate(-3255 963)" fill="currentColor">
          <tspan font-family="Helvetica Neue" font-size="150" fill="currentColor" x="0" y="143">…which are pushed to client apps    </tspan>
        </text>
      </g>
      <g id="Graphic_46">
        <text transform="translate(-1460 -528)" fill="currentColor">
          <tspan font-family="Helvetica Neue" font-size="150" fill="currentColor" x="0" y="143">links…</tspan>
        </text>
      </g>
      <g id="Graphic_47">
        <text transform="translate(-792.5493 963)" fill="currentColor">
          <tspan font-family="Helvetica Neue" font-size="150" fill="currentColor" x="0" y="143">, running on your devices.</tspan>
        </text>
      </g>
    </g>
  </g>
</svg>
